Patient4_TMGait_0pt2_03_left_05_GRF.mot
version=1
nRows=45
nColumns=19
inDegrees=no
endheader
time	F1x	F1y	F1z	M1x	M1y	M1z	F2x	F2y	F2z	M2x	M2y	M2z	EC1x	EC1y	EC1z	EC2x	EC2y	EC2z
9.38	-0.76699	3.6015	3.208	-0.86579	-3.5138	2.2087	-16.5902	792.3122	-41.3835	313.6485	56.2227	854.223	-0.0592	0.0182	-0.0073	-0.0462	0.0165	0.9585
9.4028	-0.81508	2.5535	2.2992	-0.62426	-2.5989	1.6524	-16.5719	807.4363	-41.9859	319.3858	56.7171	870.1707	-0.0592	0.0182	-0.0073	-0.0462	0.0165	0.9585
9.4256	-0.86019	1.6722	1.5273	-0.42258	-1.8202	1.1948	-16.8206	824.6635	-42.1604	325.9887	56.7987	888.3352	-0.0592	0.0182	-0.0073	-0.0462	0.0165	0.9585
9.4484	-0.89506	1.021	0.94119	-0.27493	-1.2267	0.86705	-17.2636	842.2664	-41.8127	332.7873	56.3234	906.788	-0.0592	0.0182	-0.0073	-0.0462	0.0165	0.9585
9.4711	-0.92065	0.59624	0.54187	-0.18045	-0.82371	0.65943	-17.7589	858.0928	-40.9772	338.9205	55.26	923.1225	-0.0592	0.0182	-0.0073	-0.0462	0.0165	0.9585
9.4939	-0.94289	0.35529	0.3012	-0.12836	-0.58707	0.54224	-18.1411	870.0448	-39.7671	343.5358	53.6576	934.9943	-0.0592	0.0182	-0.0073	-0.0462	0.0165	0.9585
9.5167	-0.96763	0.23252	0.17738	-0.10094	-0.47533	0.47176	-18.2435	876.4721	-38.3185	345.9581	51.5975	940.5604	-0.0592	0.0182	-0.0073	-0.0462	0.0165	0.9585
9.5395	-1.0006	0.15289	0.12949	-0.077956	-0.44874	0.38897	-17.9099	876.4362	-36.7505	345.8056	49.1551	938.7613	-0.0592	0.0182	-0.0073	-0.0462	0.0165	0.9585
9.5623	-1.0447	0.038127	0.12389	-0.038425	-0.47234	0.2271	-17.0165	869.8642	-35.1521	343.0521	46.3919	929.4927	-0.0592	0.0182	-0.0073	-0.0462	0.0165	0.9585
9.5851	-1.0998	-0.18653	0.13401	0.040006	-0.51632	-0.080205	-15.5155	857.4927	-33.5958	337.9991	43.3875	913.5595	-0.0592	0.0182	-0.0073	-0.0462	0.0165	0.9585
9.6079	-1.1614	-0.58447	0.13903	0.17828	-0.55448	-0.59378	-13.4396	840.6658	-32.156	331.1887	40.2578	892.4572	-0.0592	0.0182	-0.0073	-0.0462	0.0165	0.9585
9.6306	-1.2172	-1.2061	0.12556	0.39181	-0.56599	-1.3632	-10.866	821.0653	-30.9181	323.2943	37.1483	868.0635	-0.0592	0.0182	-0.0073	-0.0462	0.0165	0.9585
9.6534	-1.2472	-2.0725	0.085551	0.68612	-0.53441	-2.4069	-7.8979	800.4169	-29.9683	315.0036	34.2131	842.3166	-0.0592	0.0182	-0.0073	-0.0462	0.0165	0.9585
9.6762	-1.2216	-3.1469	0.013572	1.047	-0.44381	-3.683	-4.6628	780.2501	-29.383	306.9229	31.597	816.9497	-0.0592	0.0182	-0.0073	-0.0462	0.0165	0.9585
9.699	-1.1014	-4.3001	-0.091766	1.4303	-0.28101	-5.0463	-1.2988	761.7941	-29.2182	299.5371	29.4246	793.3705	-0.0592	0.0182	-0.0073	-0.0462	0.0165	0.9585
9.7218	-0.84225	-5.2728	-0.22533	1.7492	-0.037927	-6.1999	2.0634	745.9579	-29.5048	293.2029	27.7869	772.6309	-0.0592	0.0182	-0.0073	-0.0462	0.0165	0.9585
9.7446	-0.39963	-5.6381	-0.37348	1.8622	0.28437	-6.6507	5.3037	733.3115	-30.2428	288.1441	26.7315	755.4093	-0.0592	0.0182	-0.0073	-0.0462	0.0165	0.9585
9.7674	0.26516	-4.772	-0.51143	1.5645	0.66942	-5.6712	8.3032	724.0309	-31.4051	284.4304	26.2749	741.9577	-0.0592	0.0182	-0.0073	-0.0462	0.0165	0.9585
9.7901	1.1732	-1.8465	-0.59988	0.58539	1.0759	-2.2926	10.9553	717.8844	-32.9316	281.9718	26.3958	732.0832	-0.0592	0.0182	-0.0073	-0.0462	0.0165	0.9585
9.8129	2.2998	4.1369	-0.578	-1.4004	1.4204	4.6529	13.1854	714.2441	-34.7113	280.5257	27.0093	725.1598	-0.0592	0.0182	-0.0073	-0.0462	0.0165	0.9585
9.8357	3.5359	14.2387	-0.35802	-4.7364	1.5632	16.4077	14.9457	712.0811	-36.574	279.6949	27.9589	720.1385	-0.0592	0.0182	-0.0073	-0.0462	0.0165	0.9585
9.8585	4.6496	29.3493	0.17177	-9.7085	1.2962	34.0252	16.1844	709.9641	-38.3026	278.9239	29.0393	715.5663	-0.0592	0.0182	-0.0073	-0.0462	0.0165	0.9585
9.8813	5.2487	49.8098	1.1391	-16.4214	0.33833	57.929	16.8449	706.1577	-39.6663	277.5322	30.035	709.6937	-0.0592	0.0182	-0.0073	-0.0462	0.0165	0.9585
9.9041	4.8696	75.0331	2.6859	-24.6723	-1.6317	87.4709	16.919	698.9094	-40.4702	274.8238	30.7495	700.7535	-0.0592	0.0182	-0.0073	-0.0462	0.0165	0.9585
9.9269	3.4488	103.5984	4.9751	-33.9737	-4.8324	121.0179	16.4682	686.8476	-40.5981	270.2434	31.0375	687.3579	-0.0592	0.0182	-0.0073	-0.0462	0.0165	0.9585
9.9496	1.3174	133.4225	8.0612	-43.6254	-9.2205	156.1065	15.5949	669.2876	-40.0382	263.4993	30.8429	668.8071	-0.0592	0.0182	-0.0073	-0.0462	0.0165	0.9585
9.9724	-1.0922	162.5012	11.5577	-52.9882	-14.1895	190.3317	14.4385	646.489	-38.8885	254.6695	30.2088	645.3302	-0.0592	0.0182	-0.0073	-0.0462	0.0165	0.9585
9.9952	-3.455	189.6617	14.8817	-61.7181	-18.9413	222.2742	13.1759	619.6567	-37.3235	244.2079	29.242	618.0707	-0.0592	0.0182	-0.0073	-0.0462	0.0165	0.9585
10.018	-5.6312	214.6666	17.6073	-69.7704	-22.9286	251.6337	11.9743	590.5436	-35.5469	232.7923	28.081	588.6996	-0.0592	0.0182	-0.0073	-0.0462	0.0165	0.9585
10.0408	-7.6001	237.9474	19.5676	-77.3017	-25.947	278.899	10.9363	560.9174	-33.7695	221.117	26.8908	558.8989	-0.0592	0.0182	-0.0073	-0.0462	0.0165	0.9585
10.0636	-9.3572	260.1467	20.8468	-84.5198	-28.0903	304.7931	10.0827	532.1468	-32.165	209.7313	25.8287	529.963	-0.0592	0.0182	-0.0073	-0.0462	0.0165	0.9585
10.0864	-10.8684	281.7095	21.6815	-91.5583	-29.6185	329.795	9.3752	505.0345	-30.8162	198.973	24.9854	502.6461	-0.0592	0.0182	-0.0073	-0.0462	0.0165	0.9585
10.1091	-12.0977	302.8244	22.3014	-98.465	-30.7856	354.0921	8.7672	479.9059	-29.7174	188.995	24.3646	477.2541	-0.0592	0.0182	-0.0073	-0.0462	0.0165	0.9585
10.1319	-13.047	323.572	22.8203	-105.2551	-31.7292	377.7639	8.2511	456.7225	-28.8056	179.8015	23.8968	453.7469	-0.0592	0.0182	-0.0073	-0.0462	0.0165	0.9585
10.1547	-13.7712	344.0323	23.2496	-111.9441	-32.4872	400.9054	7.8843	435.1388	-27.9864	171.2636	23.4579	431.7892	-0.0592	0.0182	-0.0073	-0.0462	0.0165	0.9585
10.1775	-14.3632	364.3711	23.5946	-118.5709	-33.0969	423.7151	7.7964	414.5118	-27.1672	163.1234	22.8962	410.7567	-0.0592	0.0182	-0.0073	-0.0462	0.0165	0.9585
10.2003	-14.9346	384.9272	23.9392	-125.2247	-33.6836	446.592	8.1624	393.8882	-26.2659	154.9944	22.0548	389.7231	-0.0592	0.0182	-0.0073	-0.0462	0.0165	0.9585
10.2231	-15.6154	406.3224	24.4343	-132.0853	-34.4541	470.2533	9.1394	372.081	-25.2047	146.3972	20.792	367.5385	-0.0592	0.0182	-0.0073	-0.0462	0.0165	0.9585
10.2459	-16.5306	429.448	25.2242	-139.4278	-35.6107	495.7062	10.7951	347.842	-23.9075	136.8312	19.0051	343.0036	-0.0592	0.0182	-0.0073	-0.0462	0.0165	0.9585
10.2686	-17.7556	455.2539	26.3929	-147.5594	-37.2716	523.992	13.0566	320.0846	-22.3101	125.8668	16.6568	315.0945	-0.0592	0.0182	-0.0073	-0.0462	0.0165	0.9585
10.2914	-19.2792	484.4348	27.9622	-156.7208	-39.4526	555.8312	15.6865	288.1797	-20.365	113.26	13.7945	283.2408	-0.0592	0.0182	-0.0073	-0.0462	0.0165	0.9585
10.3142	-20.9844	517.2008	29.8902	-167.01	-42.0575	591.37	18.2971	252.247	-18.062	99.0665	10.5648	247.592	-0.0592	0.0182	-0.0073	-0.0462	0.0165	0.9585
10.337	-22.6415	553.1899	32.0751	-178.3432	-44.8825	630.0926	20.4044	213.2902	-15.4496	83.6932	7.2103	209.1408	-0.0592	0.0182	-0.0073	-0.0462	0.0165	0.9585
10.3598	-23.9719	591.4696	34.4082	-190.4374	-47.699	670.8565	21.5421	173.081	-12.6448	67.847	4.0335	169.6081	-0.0592	0.0182	-0.0073	-0.0462	0.0165	0.9585
10.3826	-24.7335	630.5981	36.8206	-202.8243	-50.3401	712.0003	21.3996	133.8156	-9.8218	52.3956	1.331	131.1068	-0.0592	0.0182	-0.0073	-0.0462	0.0165	0.9585
